<svg xmlns="http://www.w3.org/2000/svg" width="173" height="33" fill="#fff" xmlns:v="https://vecta.io/nano"><path d="M4.19 32.607l2.402-6.878h10.22l2.389 6.878h4.19L13.977 6.616H9.416L0 32.607h4.19zm3.552-10.178L11.6 11.337h.204l3.858 11.092h-7.92zm19.122 10.178h3.82V20.703c0-2.551 1.98-4.391 4.689-4.391.792 0 1.686.14 1.993.228v-3.629c-.383-.051-1.137-.089-1.622-.089-2.3 0-4.267 1.295-4.982 3.388h-.204v-3.097h-3.692v19.493zm21.37.393c5.532 0 9.147-4.023 9.147-10.051 0-6.066-3.616-10.089-9.147-10.089s-9.147 4.023-9.147 10.089c0 6.028 3.616 10.051 9.147 10.051zm.013-3.185c-3.615 0-5.302-3.135-5.302-6.878 0-3.731 1.686-6.904 5.302-6.904 3.59 0 5.276 3.173 5.276 6.904 0 3.744-1.686 6.878-5.276 6.878zm25.829-5.292c.013 3.312-2.466 4.886-4.612 4.886-2.364 0-3.999-1.701-3.999-4.353V13.114h-3.82v12.399c0 4.835 2.67 7.348 6.439 7.348 2.951 0 4.957-1.548 5.864-3.629h.204v3.376h3.756V13.114h-3.833v11.409zm12.785-3.49c0-3.109 1.916-4.886 4.574-4.886 2.593 0 4.165 1.688 4.165 4.518v11.942h3.82V20.208c0-4.822-2.67-7.348-6.682-7.348-2.951 0-4.88 1.358-5.787 3.427h-.243v-3.173h-3.667v19.493h3.82V21.033zm25.027 11.954c3.578 0 4.983-2.17 5.673-3.414h.319v3.033h3.731V6.616h-3.82v9.658h-.23c-.69-1.206-1.993-3.414-5.647-3.414-4.74 0-8.227 3.718-8.227 10.038 0 6.307 3.436 10.089 8.201 10.089zm.844-3.236c-3.411 0-5.187-2.982-5.187-6.891 0-3.871 1.737-6.777 5.187-6.777 3.334 0 5.123 2.703 5.123 6.777 0 4.099-1.827 6.891-5.123 6.891zM126.6 1.049h2.743v7.733h1.056V1.049h2.742V.118H126.6v.931zm9.04 3.824c0-1.134.728-1.777 1.72-1.777.946 0 1.516.592 1.516 1.624v4.061h1.005V4.653c0-1.671-.894-2.454-2.231-2.454-1.031 0-1.618.427-1.925 1.1h-.085V.118h-1.005v8.664h1.005V4.873zm8.823 4.044c1.328 0 2.299-.66 2.606-1.641l-.971-.271c-.256.677-.848 1.015-1.635 1.015-1.18 0-1.993-.757-2.04-2.149h4.748v-.423c0-2.42-1.448-3.249-2.811-3.249-1.771 0-2.947 1.388-2.947 3.384s1.159 3.333 3.05 3.333zm-2.04-3.909c.068-1.011.788-1.912 1.937-1.912 1.091 0 1.789.812 1.789 1.912h-3.726zm15.509-4.89V5.77c0 1.269-.877 2.183-2.333 2.183s-2.334-.914-2.334-2.183V.118h-1.056v5.736c0 1.777 1.337 3.08 3.39 3.08s3.389-1.303 3.389-3.08V.118h-1.056zm3.352 8.732c.421 0 .766-.343.766-.761s-.345-.761-.766-.761-.767.343-.767.761.345.761.767.761zm7.476-6.566h1.022C169.735.977 168.521 0 166.835 0c-1.67 0-2.981.964-2.981 2.42 0 1.168.851 1.861 2.214 2.25l1.073.305c.92.254 1.738.575 1.738 1.438 0 .948-.92 1.574-2.129 1.574-1.04 0-1.959-.457-2.045-1.438h-1.09c.102 1.421 1.261 2.386 3.135 2.386 2.01 0 3.151-1.1 3.151-2.504 0-1.624-1.55-2.149-2.453-2.386l-.886-.237c-.647-.169-1.686-.508-1.686-1.438 0-.829.766-1.438 1.925-1.438 1.056 0 1.856.499 1.959 1.354zm3.473 6.566c.422 0 .767-.343.767-.761s-.345-.761-.767-.761-.766.343-.766.761.345.761.766.761z"/></svg>